# xmcd CD database file
#
# Track frame offsets:
#	170
#	37117
#	62134
#	97285
#	117138
#	136818
#	168335
#	196402
#	220320
#	248586
#
# Disc length: 3641 seconds
#
# Revision: 0
# Processed by: cddbd v1.5.2PL0 Copyright (c) Steve Scherf et al.
# Submitted via: CDex 1.51
#
DISCID=910e370a
DTITLE=Eliane Cueni Gitta Kahle Quartet - A Tileless Place
DYEAR=1999
DGENRE=Jazz
TTITLE0=Snowdrops
TTITLE1=Woody Wood's Wonder Toy
TTITLE2=It Is You
TTITLE3=Taxi
TTITLE4=Moritz
TTITLE5=Life's Colours
TTITLE6=Over There
TTITLE7=Between Yes And No
TTITLE8=Antidote
TTITLE9=Hat On And Proud
EXTD=YEAR: 1999
EXTT0=
EXTT1=
EXTT2=
EXTT3=
EXTT4=
EXTT5=
EXTT6=
EXTT7=
EXTT8=
EXTT9=
PLAYORDER=
